<?xml version="1.0" encoding="UTF-8"?>
<svg version="1.1" xmlns="http://www.w3.org/2000/svg" width="429" height="466">
<path d="M0 0 C0.90878906 0.76763672 0.90878906 0.76763672 1.8359375 1.55078125 C1.8359375 2.21078125 1.8359375 2.87078125 1.8359375 3.55078125 C2.70412109 3.95876953 2.70412109 3.95876953 3.58984375 4.375 C9.44452336 7.4397975 14.25368608 11.84794427 18.8359375 16.55078125 C19.8259375 17.35515625 20.8159375 18.15953125 21.8359375 18.98828125 C24.91058316 21.61454108 27.2521739 24.45026493 29.8359375 27.55078125 C30.92151897 28.48938376 32.02577722 29.40685972 33.1484375 30.30078125 C34.0353125 31.04328125 34.9221875 31.78578125 35.8359375 32.55078125 C35.8359375 33.21078125 35.8359375 33.87078125 35.8359375 34.55078125 C36.8259375 34.88078125 37.8159375 35.21078125 38.8359375 35.55078125 C40.30859375 37.01171875 40.30859375 37.01171875 41.8984375 38.92578125 C44.83888607 42.40312702 47.86755943 45.77095771 50.9609375 49.11328125 C54.60063952 53.0954135 57.7844214 57.11221237 60.8359375 61.55078125 C61.83457231 62.55214457 62.83469295 63.55202735 63.8359375 64.55078125 C64.92243431 65.88577125 65.9845463 67.2409188 67.0234375 68.61328125 C67.55324219 69.30550781 68.08304688 69.99773437 68.62890625 70.7109375 C69.8359375 72.55078125 69.8359375 72.55078125 69.8359375 74.55078125 C70.4959375 74.55078125 71.1559375 74.55078125 71.8359375 74.55078125 C72.12726563 75.09605469 72.41859375 75.64132812 72.71875 76.203125 C74.8362387 80.09850516 76.9937321 83.82710504 79.5859375 87.42578125 C89.50879122 102.09098585 97.5306345 120.25837577 94.3671875 138.2109375 C91.37291806 149.74243946 84.43859125 156.88782028 74.4921875 162.98828125 C54.21136258 174.05054939 29.04378646 171.17012294 7.4609375 165.86328125 C-8.75387519 162.07384163 -26.49946612 164.53032676 -42.1640625 169.55078125 C-42.78361816 169.74704102 -43.40317383 169.94330078 -44.04150391 170.14550781 C-58.63920849 174.87105795 -72.10259434 181.79775794 -85.71508789 188.78271484 C-89.34495463 190.64351295 -92.97676708 192.49978808 -96.6171875 194.33984375 C-97.71836914 194.89881348 -98.81955078 195.4577832 -99.95410156 196.03369141 C-114.0540038 202.69757888 -127.4900375 204.2640301 -142.4765625 199.48828125 C-151.7725918 195.89381659 -157.7759797 189.41037048 -162.1640625 180.55078125 C-170.90743402 159.07647548 -165.85700674 133.49858142 -157.3984375 112.66503906 C-155.48634659 108.21052334 -153.36008068 103.87111526 -151.1640625 99.55078125 C-150.80763672 98.84743652 -150.45121094 98.1440918 -150.08398438 97.41943359 C-141.0614959 79.73927901 -130.03501818 63.79327704 -117.9765625 48.07421875 C-116.4388966 45.93341666 -115.31514516 43.90410579 -114.1640625 41.55078125 C-113.04763901 40.40052675 -111.92480386 39.25576121 -110.76953125 38.14453125 C-105.31641353 32.73121731 -100.35688263 26.84033796 -95.5390625 20.86328125 C-92.48584199 17.08916145 -89.33721161 13.60315701 -85.8515625 10.23046875 C-82.28545296 6.68086898 -78.96366969 2.84608862 -75.859375 -1.11328125 C-72.70181332 -5.13762457 -69.46241284 -7.74285002 -65.1640625 -10.44921875 C-64.1740625 -10.44921875 -63.1840625 -10.44921875 -62.1640625 -10.44921875 C-61.8340625 -11.10921875 -61.5040625 -11.76921875 -61.1640625 -12.44921875 C-39.87574701 -20.50329811 -17.70158916 -12.28217955 0 0 Z " fill="#673E1D" transform="translate(265.1640625,243.44921875)"/>
<path d="M0 0 C14.73280291 11.99587905 21.70595945 31.94088511 23.625 50.3125 C23.74877417 51.99751651 23.82653913 53.68613877 23.875 55.375 C23.89401367 56.02210937 23.91302734 56.66921875 23.93261719 57.3359375 C24.02718832 63.15334027 23.47229879 68.74936656 22.625 74.5 C22.4225769 75.8780481 22.4225769 75.8780481 22.21606445 77.28393555 C18.56786315 100.97347388 9.78780062 124.46120409 -5.125 143.375 C-5.65480469 144.13296875 -6.18460937 144.8909375 -6.73046875 145.671875 C-7.19066406 146.23390625 -7.65085937 146.7959375 -8.125 147.375 C-8.785 147.375 -9.445 147.375 -10.125 147.375 C-10.455 148.365 -10.785 149.355 -11.125 150.375 C-17.92515776 156.10346311 -25.20529367 159.31789561 -34.125 159.375 C-41.85348805 158.42453998 -47.83028929 155.81514002 -54.125 151.375 C-54.93066406 150.95089844 -55.73632812 150.52679688 -56.56640625 150.08984375 C-70.51997029 140.73776037 -75.45104039 118.38025163 -78.8828125 102.97265625 C-81.92264875 84.62660227 -82.89256903 63.5732672 -75.125 46.375 C-74.84092285 45.71790039 -74.5568457 45.06080078 -74.26416016 44.38378906 C-69.85462859 34.28369128 -64.19177592 25.79160953 -57.125 17.375 C-56.45597656 16.54226562 -55.78695312 15.70953125 -55.09765625 14.8515625 C-41.82094775 -1.05876711 -19.11991744 -13.26237048 0 0 Z " fill="#663E1D" transform="translate(298.125,25.625)"/>
<path d="M0 0 C3.74327953 3.02417583 7.20398913 6.24214039 10.61425781 9.63330078 C11.81935649 10.8218389 13.05926302 11.97488105 14.3046875 13.12109375 C33.37961715 31.04314304 51.01784169 58.68368345 52.3203125 85.3046875 C52.9729104 107.68540055 48.45697963 130.85732388 33 148 C26.21676865 154.2719325 20.38457884 157.58461455 11.02734375 157.37109375 C-4.53466614 155.46349254 -16.97355018 143.16377846 -27 132 C-32 125.36820084 -32 125.36820084 -32 122 C-32.66 122 -33.32 122 -34 122 C-40.61044766 111.47479372 -45.1347036 100.78749345 -49 89 C-49.41378906 87.75476563 -49.82757813 86.50953125 -50.25390625 85.2265625 C-54.80896878 69.99819845 -56.02188557 52.85110874 -55 37 C-54.505 36.505 -54.505 36.505 -54 36 C-53.9175 34.741875 -53.835 33.48375 -53.75 32.1875 C-52.57242886 21.0972405 -46.51069293 9.57140324 -38.0234375 2.30859375 C-36.06407513 1.00105113 -34.14503302 -0.02982285 -32 -1 C-31.32453125 -1.31582031 -30.6490625 -1.63164063 -29.953125 -1.95703125 C-20.32213098 -5.8059139 -8.8640652 -5.55371986 0 0 Z " fill="#663D1D" transform="translate(145,35)"/>
<path d="M0 0 C2.75 2.375 2.75 2.375 5 5 C5.68449219 5.66515625 5.68449219 5.66515625 6.3828125 6.34375 C18.53923635 18.81840484 23.13562638 40.31868941 22.96875 57.15234375 C21.73132809 84.65404565 9.45211766 108.96634183 -10.69140625 127.47265625 C-16.10385098 132.10221607 -21.26155287 135.65672019 -28 138 C-28.90492188 138.35449219 -29.80984375 138.70898438 -30.7421875 139.07421875 C-34.68368423 140.19428437 -38.23510676 140.3840639 -42.3125 140.375 C-43.0650708 140.37338867 -43.8176416 140.37177734 -44.59301758 140.37011719 C-50.4786923 140.24032823 -54.97919599 139.18711907 -60 136 C-61.7015625 135.01 -61.7015625 135.01 -63.4375 134 C-65.90201671 132.07647476 -66.96262516 130.90464954 -68 128 C-68.66 128 -69.32 128 -70 128 C-77.41044286 118.95969434 -80.4632053 106.32152427 -82 95 C-82.33 94.34 -82.66 93.68 -83 93 C-84.75069299 73.13386035 -80.51392281 57.27782526 -71 40 C-70.505 39.08476562 -70.01 38.16953125 -69.5 37.2265625 C-60.18083552 20.86507487 -45.35290814 0.61459535 -26.47265625 -4.59375 C-16.64213713 -6.20887478 -8.31534928 -5.77145657 0 0 Z " fill="#663D1D" transform="translate(397,151)"/>
<path d="M0 0 C15.01263248 9.25753678 26.689289 21.86376018 37 36 C37.56460938 36.7115625 38.12921875 37.423125 38.7109375 38.15625 C47.02513793 49.24185058 50.71002941 64.55963416 53 78 C53.185625 78.96421875 53.37125 79.9284375 53.5625 80.921875 C54.06541241 84.460223 54.13231514 87.8640552 54.125 91.4375 C54.12886719 93.32275391 54.12886719 93.32275391 54.1328125 95.24609375 C54.00243134 98.93127902 53.59062733 102.36717317 53 106 C52.34 106 51.68 106 51 106 C50.88011719 106.58394531 50.76023437 107.16789062 50.63671875 107.76953125 C48.25906665 116.09860702 40.73517384 120.89727494 33.65234375 125.078125 C22.78062971 131.05941907 10.13402512 131.69113205 -1.6875 128.375 C-14.66622447 123.90333863 -27.32670463 114.68621034 -36 104 C-36 103.34 -36 102.68 -36 102 C-36.66 102 -37.32 102 -38 102 C-40.58120027 98.50074396 -42.73446128 94.70940407 -45 91 C-45.78310547 89.81470703 -45.78310547 89.81470703 -46.58203125 88.60546875 C-58.56743937 70.04231686 -61.8780188 47.07840314 -57.875 25.5 C-54.97142552 13.78982935 -49.31842323 5.51695263 -39.16015625 -0.88671875 C-27.7833863 -6.7499727 -11.22862391 -5.62767937 0 0 Z " fill="#663E1D" transform="translate(69,170)"/>
<path d="M0 0 C0.66 0.33 1.32 0.66 2 1 C0.69832885 6.08835088 -1.24145632 8.4162723 -5 12 C-8.39451723 16.04156597 -10.61317241 20.03883226 -12.31640625 25.0234375 C-12.97393842 26.9246448 -13.76621002 28.77760724 -14.5625 30.625 C-16.05834087 33.93959061 -16.05834087 33.93959061 -16.9375 37.3125 C-18 40 -18 40 -19.99609375 40.8828125 C-22.20072683 41.82315739 -22.20072683 41.82315739 -22.7578125 44.12890625 C-22.87898438 44.93199219 -23.00015625 45.73507812 -23.125 46.5625 C-23.5078125 49.00390625 -23.5078125 49.00390625 -24 51 C-24.99 51.495 -24.99 51.495 -26 52 C-26.34123581 53.99866686 -26.6725678 55.99902542 -27 58 C-27.45375 59.175625 -27.9075 60.35125 -28.375 61.5625 C-33.41735971 74.87631678 -35.95526249 92.04681626 -32 106 C-31.83242187 106.74636719 -31.66484375 107.49273437 -31.4921875 108.26171875 C-28.93423449 118.31544547 -22.89982404 125.70775282 -14 131 C-4.64697994 135.49156331 6.91376333 136.90678292 16.875 133.6875 C20.3696579 132.35260365 23.66955389 130.70222801 27 129 C29 128.33333333 31 127.66666667 33 127 C35.01470098 126.02995879 37.01922047 125.03755118 39 124 C39.66 124.66 40.32 125.32 41 126 C24.83123005 134.51491435 9.8594146 140.6516221 -8.671875 136.09765625 C-19.12051115 132.7679943 -25.4741793 127.49753446 -30.97265625 118.07421875 C-40.77723609 98.27866021 -36.18271889 73.97178358 -29.4375 53.9296875 C-27.11601101 47.38760256 -24.14206143 41.18153119 -21 35 C-20.46536133 33.94498291 -20.46536133 33.94498291 -19.91992188 32.86865234 C-14.05101699 21.36815047 -7.64486561 10.42481674 0 0 Z " fill="#56361B" transform="translate(135,308)"/>
<path d="M0 0 C1.78124853 3.10632365 2.34774422 5.6293841 2.625 9.1875 C2.73714844 10.50814453 2.73714844 10.50814453 2.8515625 11.85546875 C3.20896135 19.42668123 2.85541699 26.62251327 1.75 34.125 C1.61505127 35.04369873 1.48010254 35.96239746 1.34106445 36.90893555 C-2.30713685 60.59847388 -11.08719938 84.08620409 -26 103 C-26.52980469 103.75796875 -27.05960937 104.5159375 -27.60546875 105.296875 C-28.06566406 105.85890625 -28.52585937 106.4209375 -29 107 C-29.66 107 -30.32 107 -31 107 C-31.495 108.485 -31.495 108.485 -32 110 C-38.8463462 115.76737231 -46.05692266 118.75731133 -55 119 C-58.14450949 118.72931052 -61.14269062 118.39132642 -64 117 C-64.33 116.01 -64.66 115.02 -65 114 C-64.2575 114.20625 -63.515 114.4125 -62.75 114.625 C-59.67669159 115.04408751 -58.57213134 114.61949011 -56 113 C-55.67 113.66 -55.34 114.32 -55 115 C-49.49183877 115.28007599 -46.61791371 115.24502045 -42 112 C-41.175 111.71125 -40.35 111.4225 -39.5 111.125 C-36.75886199 110.06918444 -36.75886199 110.06918444 -34.375 107.375 C-33.199375 106.199375 -33.199375 106.199375 -32 105 C-31.01 105 -30.02 105 -29 105 C-28.8453125 104.1028125 -28.8453125 104.1028125 -28.6875 103.1875 C-27.90088144 100.68462276 -26.86454169 99.78685245 -25 98 C-24.505 96.515 -24.505 96.515 -24 95 C-23.34 95 -22.68 95 -22 95 C-21.7525 94.34 -21.505 93.68 -21.25 93 C-19.33732062 88.40956949 -17.06355149 84.00564802 -14.734375 79.61328125 C-11.73751751 73.86328661 -9.72021628 68.23850589 -8 62 C-7.649375 60.989375 -7.29875 59.97875 -6.9375 58.9375 C-5.39192598 54.09470139 -4.37052623 49.13052581 -3.5 44.125 C-3 42 -3 42 -1 39 C-0.61802527 36.79781389 -0.61802527 36.79781389 -0.55078125 34.3515625 C-0.50695312 33.4342334 -0.463125 32.5169043 -0.41796875 31.57177734 C-0.38316406 30.59934082 -0.34835937 29.6269043 -0.3125 28.625 C-0.27125 27.63580566 -0.23 26.64661133 -0.1875 25.62744141 C0.04112012 19.15304658 -0.0842129 12.89974064 -0.84375 6.4609375 C-0.99758926 4.03796912 -0.7338142 2.29856506 0 0 Z " fill="#54351C" transform="translate(319,66)"/>
<path d="M0 0 C0 0.66 0 1.32 0 2 C-1.80017578 2.29390625 -1.80017578 2.29390625 -3.63671875 2.59375 C-22.98474558 5.97160284 -39.89232177 13.00507161 -57.18261719 22.2265625 C-58.14458008 22.73058594 -59.10654297 23.23460937 -60.09765625 23.75390625 C-61.37394897 24.43948608 -61.37394897 24.43948608 -62.67602539 25.13891602 C-65.2918853 26.10814996 -66.43000643 25.97175914 -69 25 C-66.0045072 22.42054787 -63.85648699 20.82639007 -60 20 C-59.67 19.34 -59.34 18.68 -59 18 C-58.154375 17.87625 -57.30875 17.7525 -56.4375 17.625 C-52.82282466 16.9677863 -50.34864928 15.80014448 -47.13671875 14.10546875 C-44.95680258 12.97765106 -42.74999359 11.97977346 -40.5 11 C-36.84108313 9.39843258 -33.2749412 7.66463012 -29.7265625 5.83203125 C-26.84860826 4.4451438 -23.91635921 3.72722029 -20.8125 3.0625 C-17.82240429 2.41900044 -14.88317625 1.69583073 -11.9375 0.875 C-7.89066294 -0.16724375 -4.16576973 -0.14877749 0 0 Z " fill="#57381D" transform="translate(245,406)"/>
<path d="M0 0 C0.33 0 0.66 0 1 0 C1.05534912 0.76143311 1.11069824 1.52286621 1.16772461 2.30737305 C1.42108359 5.76766086 1.67924193 9.22757452 1.9375 12.6875 C2.02451172 13.88568359 2.11152344 15.08386719 2.20117188 16.31835938 C2.28818359 17.47529297 2.37519531 18.63222656 2.46484375 19.82421875 C2.543396 20.88729248 2.62194824 21.95036621 2.70288086 23.0456543 C2.97557277 25.75711267 3.45469941 28.33344144 4 31 C4.21747938 34.43134134 4.39067958 37.85742269 4.51757812 41.29296875 C4.70155076 45.00713326 4.89121596 46.83682395 7 50 C7.49533297 51.65110989 7.985702 53.30414446 8.43359375 54.96875 C9.9530481 60.41782768 11.81255414 65.78378295 14 71 C13.01 71 12.02 71 11 71 C1.70693962 47.03052065 -0.33498606 25.58520466 0 0 Z " fill="#573414" transform="translate(218,88)"/>
<path d="M0 0 C2.32398066 0.37567008 2.32398066 0.37567008 4.6875 0.5 C8.00029405 0.77566315 11.13562769 1.1978911 14.375 1.9375 C22.77974858 3.74045413 31.4516406 4.22604373 40 5 C38.84301758 6.51611328 38.84301758 6.51611328 37 8 C34.49487305 8.11279297 34.49487305 8.11279297 31.51171875 7.7421875 C30.42004395 7.61239502 29.32836914 7.48260254 28.20361328 7.34887695 C27.0432959 7.19249756 25.88297852 7.03611816 24.6875 6.875 C23.50140137 6.72828857 22.31530273 6.58157715 21.09326172 6.43041992 C15.17669073 5.66923078 9.41145429 4.75389114 3.625 3.3125 C-5.10878775 1.19521812 -14.0779435 1.75765038 -23 2 C-22.67 1.01 -22.34 0.02 -22 -1 C-19.27132267 -1.22262638 -16.54308042 -1.42852324 -13.8125 -1.625 C-13.04357422 -1.68945312 -12.27464844 -1.75390625 -11.48242188 -1.8203125 C-7.0330983 -2.12584545 -4.11038479 -1.93345626 0 0 Z " fill="#543419" transform="translate(269,406)"/>
<path d="M0 0 C-1.45970303 4.68321387 -4.19286498 7.81455881 -7.5 11.3125 C-8.30304565 12.16799438 -8.30304565 12.16799438 -9.12231445 13.04077148 C-16.1645501 20.4149222 -23.30048788 26.52606126 -33 30 C-33.91523438 30.3609375 -34.83046875 30.721875 -35.7734375 31.09375 C-39.53270031 32.14962043 -43.01044586 32.2223628 -46.875 32.125 C-47.56335938 32.11597656 -48.25171875 32.10695313 -48.9609375 32.09765625 C-50.64077838 32.07432513 -52.32043746 32.03846326 -54 32 C-54 31.67 -54 31.34 -54 31 C-53.21496094 30.95101563 -52.42992187 30.90203125 -51.62109375 30.8515625 C-40.26050023 30.04307854 -28.23847263 27.51817386 -20 19 C-19.34 19 -18.68 19 -18 19 C-18 18.34 -18 17.68 -18 17 C-17.01 17 -16.02 17 -15 17 C-14.7525 16.2575 -14.505 15.515 -14.25 14.75 C-12.89534961 11.76976913 -11.4898459 10.10080748 -9 8 C-8.34 8 -7.68 8 -7 8 C-6.731875 7.236875 -6.46375 6.47375 -6.1875 5.6875 C-4.80876015 2.56719402 -3.66285015 0 0 0 Z " fill="#57381F" transform="translate(402,259)"/>
<path d="M0 0 C2.81009354 0.64230709 4.55829604 1.34679609 6.19921875 3.7734375 C6.58722656 4.46695312 6.97523437 5.16046875 7.375 5.875 C9.92304593 10.33408038 12.45337267 11.72668634 17 14 C17.495 14.515625 17.99 15.03125 18.5 15.5625 C21.58652263 18.52041752 26.00712725 19.66904242 30 21 C30 21.66 30 22.32 30 23 C31.36125 23.2165625 31.36125 23.2165625 32.75 23.4375 C34.45698576 23.73293984 36.16479732 24.04189762 37.84375 24.46875 C40.46267348 25.11399202 43.09493115 25.58838056 45.75 26.0625 C46.73484375 26.23910156 47.7196875 26.41570312 48.734375 26.59765625 C49.48203125 26.73042969 50.2296875 26.86320312 51 27 C51 27.33 51 27.66 51 28 C33.94406282 29.23048845 21.24184059 21.88396441 8.5625 11.2578125 C5.22113134 8.31374072 2.05325497 5.24082694 -1 2 C-0.67 1.34 -0.34 0.68 0 0 Z " fill="#56371E" transform="translate(34,272)"/>
<path d="M0 0 C10.82992047 -0.70222827 18.39514014 0.15943921 26.75 7.375 C27.4925 8.24125 28.235 9.1075 29 10 C29.45632813 10.4434375 29.91265625 10.886875 30.3828125 11.34375 C34.266754 15.32936536 36.58515591 19.82836042 38.9375 24.8125 C39.25638184 25.4832959 39.57526367 26.1540918 39.90380859 26.84521484 C40.67053133 28.53423345 41.34341738 30.26519544 42 32 C41.505 32.99 41.505 32.99 41 34 C38.25484323 31.61666905 37.10919982 29.31090681 35.8125 25.9375 C35.46832031 25.05964844 35.12414062 24.18179688 34.76953125 23.27734375 C34 21 34 21 34 19 C33.01 18.67 32.02 18.34 31 18 C30.29257339 16.68783773 29.6319726 15.35012328 29 14 C27.87695108 12.54851225 26.70778017 11.1317824 25.5 9.75 C24.58734375 8.69039062 24.58734375 8.69039062 23.65625 7.609375 C22.14583632 5.76770496 22.14583632 5.76770496 20 6 C20 5.34 20 4.68 20 4 C18.80761719 3.87882813 17.61523438 3.75765625 16.38671875 3.6328125 C14.82026592 3.46397327 13.25386212 3.29467868 11.6875 3.125 C10.90181641 3.04636719 10.11613281 2.96773437 9.30664062 2.88671875 C8.1706543 2.76103516 8.1706543 2.76103516 7.01171875 2.6328125 C6.31522217 2.55949707 5.61872559 2.48618164 4.90112305 2.41064453 C3 2 3 2 0 0 Z " fill="#533619" transform="translate(373,146)"/>
<path d="M0 0 C5.8492647 0.2414834 9.55035189 2.99506626 14.125 6.3125 C14.86983643 6.84649414 15.61467285 7.38048828 16.38208008 7.93066406 C26.00093795 14.9935269 34.19342222 23.16827654 41 33 C38 33 38 33 35.4375 30.75 C33.3831078 28.43222418 32.27800746 26.73858742 31 24 C28.73669607 21.19781418 26.36911073 20.18374161 23 19 C23 18.01 23 17.02 23 16 C22.34 16 21.68 16 21 16 C21 15.34 21 14.68 21 14 C20.34 14 19.68 14 19 14 C19 13.34 19 12.68 19 12 C17.68 11.67 16.36 11.34 15 11 C15 10.34 15 9.68 15 9 C14.05125 8.690625 13.1025 8.38125 12.125 8.0625 C9 7 9 7 7 6 C7 5.01 7 4.02 7 3 C5.68 3.33 4.36 3.66 3 4 C3 3.34 3 2.68 3 2 C1.68 1.67 0.36 1.34 -1 1 C-0.67 0.67 -0.34 0.34 0 0 Z " fill="#523419" transform="translate(61,168)"/>
<path d="M0 0 C5.07581391 3.15652177 9.28254984 7.35327328 13.5 11.5546875 C12.84 11.8846875 12.18 12.2146875 11.5 12.5546875 C8.67823663 11.2143499 6.88717811 10.35324235 5.5 7.4921875 C4.07129973 4.72408073 2.40168513 4.54389834 -0.5 3.5546875 C-1.37398437 3.049375 -2.24796875 2.5440625 -3.1484375 2.0234375 C-7.24110382 0.22991473 -10.46340513 0.05863946 -14.875 0.1171875 C-16.00446045 0.12202148 -16.00446045 0.12202148 -17.15673828 0.12695312 C-22.89329789 0.27139439 -26.62241563 1.4330335 -31.5 4.5546875 C-32.49 4.5546875 -33.48 4.5546875 -34.5 4.5546875 C-26.46527593 -4.6090991 -10.39167921 -4.68309228 0 0 Z " fill="#5C3F29" transform="translate(142.5,33.4453125)"/>
<path d="M0 0 C0.66 0.33 1.32 0.66 2 1 C0.80109984 13.46856168 -6.2607266 27.09775646 -15 36 C-16.95163574 37.57251003 -18.80565637 38.76902675 -21 40 C-21 37 -21 37 -19.625 35.3125 C-18 34 -18 34 -16 34 C-15.731875 33.236875 -15.46375 32.47375 -15.1875 31.6875 C-14.03396359 29.07686496 -13.01370135 27.92614911 -11 26 C-10.67 25.01 -10.34 24.02 -10 23 C-9.2884375 22.319375 -9.2884375 22.319375 -8.5625 21.625 C-5.34793817 18.28185569 -4.41456994 13.32691981 -3 9 C-2.45913271 7.37473376 -1.91743059 5.74974516 -1.375 4.125 C-1.11460937 3.34382812 -0.85421875 2.56265625 -0.5859375 1.7578125 C-0.39257812 1.17773438 -0.19921875 0.59765625 0 0 Z " fill="#57371D" transform="translate(192,148)"/>
<path d="M0 0 C2.475 0.495 2.475 0.495 5 1 C5 1.66 5 2.32 5 3 C5.58394531 3.26941406 6.16789063 3.53882813 6.76953125 3.81640625 C9.0009014 5.00047833 10.74202845 6.33462722 12.6875 7.9375 C16.31807053 10.73024656 19.73536738 12.19744881 24.1171875 13.45703125 C26 14 26 14 28 15 C30.73018005 14.74891579 33.4123533 14.43964691 36.125 14.0625 C36.87910156 13.96259766 37.63320312 13.86269531 38.41015625 13.75976562 C40.27417753 13.51201596 42.13719288 13.25671943 44 13 C38.320085 17.50476017 33.06202546 17.76586909 26 17 C16.22372801 14.27942496 5.79603184 8.532519 0 0 Z " fill="#54361D" transform="translate(127,175)"/>
<path d="M0 0 C0.66 0 1.32 0 2 0 C3.87221892 7.23924648 5.14040762 13.91087566 5.125 21.4375 C5.12757812 22.69433594 5.13015625 23.95117188 5.1328125 25.24609375 C5.00243134 28.93127902 4.59062733 32.36717317 4 36 C3.01 36 2.02 36 1 36 C1.08378906 35.40316406 1.16757813 34.80632812 1.25390625 34.19140625 C2.5950426 22.76628266 1.5044981 11.36023564 0 0 Z " fill="#563818" transform="translate(118,240)"/>
<path d="M0 0 C10.2704927 11.41500509 8.61977329 31.86344804 8 46 C7.34 46 6.68 46 6 46 C5.98541748 45.37134033 5.97083496 44.74268066 5.95581055 44.0949707 C5.6358221 28.13292562 5.6358221 28.13292562 2.62109375 12.5234375 C1.9805199 9.92085444 1.88918921 7.66909459 2 5 C1.34 5 0.68 5 0 5 C-0.5625 3.0625 -0.5625 3.0625 -1 1 C-0.67 0.67 -0.34 0.34 0 0 Z " fill="#53351A" transform="translate(189,92)"/>
<path d="M0 0 C0.33 0.99 0.66 1.98 1 3 C-0.8125 6.1875 -0.8125 6.1875 -3 9 C-3.66 9 -4.32 9 -5 9 C-5 10.65 -5 12.3 -5 14 C-5.99 14.495 -5.99 14.495 -7 15 C-8.03103429 17.06845953 -8.03103429 17.06845953 -8.9375 19.5625 C-9.28167969 20.46226563 -9.62585938 21.36203125 -9.98046875 22.2890625 C-10.31691406 23.18367188 -10.65335938 24.07828125 -11 25 C-11.30550781 25.77085938 -11.61101562 26.54171875 -11.92578125 27.3359375 C-13.11261141 30.36207317 -14 32.72013229 -14 36 C-14.66 36 -15.32 36 -16 36 C-16.33 36.99 -16.66 37.98 -17 39 C-18.81614758 35.36770485 -16.61790233 31.54772492 -15.43359375 27.85546875 C-11.85922352 17.81244883 -6.82790568 8.19348682 0 0 Z " fill="#56371C" transform="translate(237,48)"/>
<path d="M0 0 C0.66 0.33 1.32 0.66 2 1 C1.67 1.99 1.34 2.98 1 4 C1.66 4.33 2.32 4.66 3 5 C2.67 6.32 2.34 7.64 2 9 C2.66 9.33 3.32 9.66 4 10 C3.94070312 10.70125 3.88140625 11.4025 3.8203125 12.125 C4.04278929 15.68462857 5.20188045 17.86190017 6.875 21 C8.78584128 24.61859799 10.55005315 28.17101416 12 32 C11.01 32 10.02 32 9 32 C-2.54116071 10.99508751 -2.54116071 10.99508751 0 0 Z " fill="#56361C" transform="translate(12,224)"/>
<path d="M0 0 C0.99 0.495 0.99 0.495 2 1 C2.48123052 3.93491206 2.84423228 6.79503477 3.125 9.75 C3.21136719 10.56210938 3.29773438 11.37421875 3.38671875 12.2109375 C3.71863975 15.44585006 4.01059034 18.5740328 3.9296875 21.828125 C4.01275394 24.3939549 4.82574802 25.73720786 6 28 C6.43741809 29.98728217 6.80841333 31.9899259 7.125 34 C7.29257813 35.03125 7.46015625 36.0625 7.6328125 37.125 C8 40 8 40 8 44 C0.13831091 32.20746637 0 13.72722735 0 0 Z " fill="#56371E" transform="translate(90,83)"/>
<path d="M0 0 C3.08549803 1.39190245 5.37046979 3.04434111 7.875 5.3125 C10.26899111 7.4622063 12.67021565 9.5590799 15.1875 11.5625 C18.16889057 14.14637182 20.47774784 16.9732974 23 20 C24.06639545 20.89556511 25.14993039 21.77113645 26.25 22.625 C29.75179856 25.64928058 29.75179856 25.64928058 30 29 C28.125 28.3125 28.125 28.3125 26 27 C25.33333333 25.33333333 24.66666667 23.66666667 24 22 C21.71253467 20.52421591 19.59597353 19.86532451 17 19 C16.3125 16.9375 16.3125 16.9375 16 15 C15.34 15 14.68 15 14 15 C12.31126121 13.35570171 10.64694485 11.68615782 9 10 C8.2575 9.46375 7.515 8.9275 6.75 8.375 C5 7 5 7 4 4 C1.99983534 2.79117904 1.99983534 2.79117904 0 2 C0 1.34 0 0.68 0 0 Z " fill="#51341D" transform="translate(272,251)"/>
<path d="M0 0 C11.44917104 -0.77621499 24.75936979 3.00436503 33.7265625 10.4296875 C35.125 11.8125 35.125 11.8125 37 14 C36.01 14.33 35.02 14.66 34 15 C33.64679688 14.40445313 33.29359375 13.80890625 32.9296875 13.1953125 C30.35052807 10.26112708 27.73328341 9.33204468 24.125 7.875 C22.91070312 7.37742188 21.69640625 6.87984375 20.4453125 6.3671875 C19.30835938 5.91601562 18.17140625 5.46484375 17 5 C16.15824219 4.62359375 15.31648437 4.2471875 14.44921875 3.859375 C11.49526885 2.82290135 8.80697559 2.58067971 5.6875 2.375 C4.08455078 2.26285156 4.08455078 2.26285156 2.44921875 2.1484375 C1.64097656 2.09945312 0.83273438 2.05046875 0 2 C0 1.34 0 0.68 0 0 Z " fill="#523419" transform="translate(225,229)"/>
<path d="M0 0 C1.7578125 1.60546875 1.7578125 1.60546875 3 3 C0.1530411 2.48237111 -2.49335583 1.83871059 -5.25 0.9375 C-13.21188611 -1.05297153 -19.45476552 0.00817588 -27 3 C-28.010625 3.391875 -29.02125 3.78375 -30.0625 4.1875 C-30.701875 4.455625 -31.34125 4.72375 -32 5 C-32 4.01 -32 3.02 -32 2 C-21.28750486 -3.01783541 -11.18193421 -5.45624501 0 0 Z " fill="#513118" transform="translate(294,23)"/>
<path d="M0 0 C0.33 0.99 0.66 1.98 1 3 C-0.0725 3.61875 -1.145 4.2375 -2.25 4.875 C-2.88808594 5.24367187 -3.52617187 5.61234375 -4.18359375 5.9921875 C-6 7 -6 7 -8.3125 8 C-10.53041201 9.31431823 -10.90928665 10.68535639 -12 13 C-12.51240234 13.92039063 -12.51240234 13.92039063 -13.03515625 14.859375 C-15.65078808 19.67293319 -16.53049771 23.5537734 -17 29 C-17.33 29.66 -17.66 30.32 -18 31 C-18.66 31 -19.32 31 -20 31 C-20.36771837 25.36165171 -19.39099655 21.878053 -16.8125 16.875 C-16.22082031 15.69679687 -15.62914062 14.51859375 -15.01953125 13.3046875 C-12.05197972 8.44869409 -8.56465889 5.08072985 -3.6875 2.1875 C-2.99011719 1.76855469 -2.29273437 1.34960938 -1.57421875 0.91796875 C-1.05472656 0.61503906 -0.53523438 0.31210938 0 0 Z " fill="#58381B" transform="translate(32,168)"/>
<path d="M0 0 C2.62764216 2.62764216 3.98412974 5.62452639 5.68359375 8.90625 C6.97688258 11.28008124 6.97688258 11.28008124 10 13 C10 13.66 10 14.32 10 15 C13.45201833 18.30290192 13.45201833 18.30290192 18 19 C18.33 19.99 18.66 20.98 19 22 C21.00016466 23.20882096 21.00016466 23.20882096 23 24 C20 25 20 25 17.84375 24.109375 C16.68359375 23.43648438 16.68359375 23.43648438 15.5 22.75 C14.7265625 22.31171875 13.953125 21.8734375 13.15625 21.421875 C11.13552369 20.08936707 9.55339929 18.85212992 8 17 C8 16.34 8 15.68 8 15 C7.34 15 6.68 15 6 15 C4.52734375 12.953125 4.52734375 12.953125 2.9375 10.25 C2.41027344 9.36828125 1.88304687 8.4865625 1.33984375 7.578125 C0.16760823 5.32251147 -0.63324154 3.50524239 -1 1 C-0.67 0.67 -0.34 0.34 0 0 Z " fill="#522F16" transform="translate(321,264)"/>
<path d="M0 0 C7.08132905 6.26425262 10.66007647 14.06865584 13.9375 22.75 C14.25630127 23.57830322 14.57510254 24.40660645 14.90356445 25.26000977 C17.57286016 32.62798192 17.57286016 32.62798192 16 37 C15.896875 36.484375 15.79375 35.96875 15.6875 35.4375 C14.95138499 32.82763769 13.9175574 30.41870262 12.83203125 27.9375 C9 19.01408451 9 19.01408451 9 15 C8.34 15 7.68 15 7 15 C5.2734375 12.48046875 5.2734375 12.48046875 3.375 9.1875 C2.74335937 8.10855469 2.11171875 7.02960938 1.4609375 5.91796875 C0 3 0 3 0 0 Z " fill="#50341C" transform="translate(102,202)"/>
<path d="M0 0 C0.33 0 0.66 0 1 0 C4.27624707 12.2859265 4.156188 23.85987433 -2.1875 35.125 C-2.785625 36.07375 -3.38375 37.0225 -4 38 C-4.66 37.34 -5.32 36.68 -6 36 C-5.071875 34.5459375 -5.071875 34.5459375 -4.125 33.0625 C0.71537397 24.4974411 0.94728017 14.49281921 -0.5625 4.9375 C-1 2 -1 2 0 0 Z " fill="#533319" transform="translate(357,358)"/>
<path d="M0 0 C0.33 0.99 0.66 1.98 1 3 C-3.5 7 -3.5 7 -8 7 C-8.268125 7.61875 -8.53625 8.2375 -8.8125 8.875 C-10 11 -10 11 -13 13 C-13.33 13.99 -13.66 14.98 -14 16 C-15.32467746 16.6837045 -16.65863633 17.34964186 -18 18 C-18.66 18.99 -19.32 19.98 -20 21 C-20.99 20.67 -21.98 20.34 -23 20 C-16.04435812 11.78467494 -9.33203618 5.53733386 0 0 Z " fill="#58391E" transform="translate(364,149)"/>
<path d="M0 0 C-0.66 1.98 -1.32 3.96 -2 6 C-3.32 6 -4.64 6 -6 6 C-6.09667969 6.58910156 -6.19335938 7.17820312 -6.29296875 7.78515625 C-7.14574494 10.45656011 -8.26809673 11.54193979 -10.3125 13.4375 C-12.53144266 15.54731433 -14.40689907 17.5168718 -16.3125 19.9375 C-17.1478125 20.9584375 -17.1478125 20.9584375 -18 22 C-18.66 22 -19.32 22 -20 22 C-18.71359495 19.22951358 -17.31576229 16.9963532 -15.3203125 14.6875 C-14.80339844 14.08679688 -14.28648437 13.48609375 -13.75390625 12.8671875 C-13.21636719 12.25101562 -12.67882812 11.63484375 -12.125 11 C-11.59519531 10.38382812 -11.06539062 9.76765625 -10.51953125 9.1328125 C-2.62141229 0 -2.62141229 0 0 0 Z " fill="#573920" transform="translate(181,254)"/>
<path d="M0 0 C0.66 0 1.32 0 2 0 C0.49724981 4.41748043 -2.91742747 6.27115659 -6.6875 8.625 C-7.28755859 9.01945312 -7.88761719 9.41390625 -8.50585938 9.8203125 C-14.37620023 13.55311786 -19.96682086 15.34308191 -27 15 C-24.40019136 11.67042052 -21.88935445 11.38238288 -17.8125 10.8125 C-16.72582031 10.65394531 -15.63914062 10.49539063 -14.51953125 10.33203125 C-13.68808594 10.22246094 -12.85664062 10.11289062 -12 10 C-12 9.34 -12 8.68 -12 8 C-5.25 4 -5.25 4 -3 4 C-3 3.34 -3 2.68 -3 2 C-2.01 2 -1.02 2 0 2 C0 1.34 0 0.68 0 0 Z " fill="#52371F" transform="translate(113,284)"/>
<path d="M0 0 C0.66 0 1.32 0 2 0 C0.65329134 8.34959369 -2.80180926 16.22368852 -6 24 C-6.66 23.67 -7.32 23.34 -8 23 C-6.89764589 14.58029533 -3.76813055 7.55996003 0 0 Z " fill="#54341B" transform="translate(324,194)"/>
<path d="M0 0 C2.48106724 3.72160086 4.26954954 6.64253844 5.43359375 10.96875 C6.9530481 16.41782768 8.81255414 21.78378295 11 27 C10.01 27 9.02 27 8 27 C7.0381577 24.48045712 6.08045759 21.95946363 5.125 19.4375 C4.72087891 18.38079102 4.72087891 18.38079102 4.30859375 17.30273438 C0 5.90072409 0 5.90072409 0 0 Z " fill="#55381F" transform="translate(221,132)"/>
<path d="M0 0 C0.33 0.99 0.66 1.98 1 3 C-0.109375 5.15625 -0.109375 5.15625 -1.75 7.5 C-2.28109375 8.2734375 -2.8121875 9.046875 -3.359375 9.84375 C-4.80228302 11.7401434 -6.31868138 13.32341749 -8 15 C-8.474375 15.86625 -8.94875 16.7325 -9.4375 17.625 C-11 20 -11 20 -13.1875 20.8125 C-13.785625 20.874375 -14.38375 20.93625 -15 21 C-12.26307357 16.81962606 -9.39495136 12.79701776 -6.375 8.8125 C-4.17588534 5.90835356 -2.02079202 3.03118803 0 0 Z " fill="#56371E" transform="translate(151,286)"/>
<path d="M0 0 C0.66 0 1.32 0 2 0 C3.21521251 8.11388044 2.76299944 15.85351368 2 24 C1.01 24 0.02 24 -1 24 C-0.75443359 22.80503906 -0.75443359 22.80503906 -0.50390625 21.5859375 C0.10791538 17.23204401 0.10799591 13.0136058 0.0625 8.625 C0.05798828 7.79355469 0.05347656 6.96210938 0.04882812 6.10546875 C0.03713164 4.07028103 0.01919935 2.03513077 0 0 Z " fill="#57341B" transform="translate(417,195)"/>
<path d="M0 0 C0.66 0 1.32 0 2 0 C2 0.66 2 1.32 2 2 C1.34 2 0.68 2 0 2 C0 2.99 0 3.98 0 5 C-0.66 5 -1.32 5 -2 5 C-2 5.66 -2 6.32 -2 7 C-2.66 7 -3.32 7 -4 7 C-4.103125 7.7425 -4.20625 8.485 -4.3125 9.25 C-5.05451038 12.21804151 -6.1904406 13.58725413 -8 16 C-8.71433121 18.64934822 -8.71433121 18.64934822 -9 21 C-9.99 21 -10.98 21 -12 21 C-9.88444103 12.93443144 -5.95439919 5.95439919 0 0 Z " fill="#58381E" transform="translate(106,38)"/>
<path d="M0 0 C0.99 0.33 1.98 0.66 3 1 C-2.07100721 5.79465804 -7.38487086 10.49486234 -14 13 C-14.99 12.67 -15.98 12.34 -17 12 C-15.39161707 8.78323414 -12.21406721 8.35329146 -9 7 C-8.34 6.34 -7.68 5.68 -7 5 C-6.34 4.67 -5.68 4.34 -5 4 C-4.34 3.01 -3.68 2.02 -3 1 C-2.34 1 -1.68 1 -1 1 C-0.67 0.67 -0.34 0.34 0 0 Z " fill="#55361C" transform="translate(349,396)"/>
<path d="M0 0 C0.99 0 1.98 0 3 0 C1.25267359 6.26480445 -0.97120279 10.88233868 -5 16 C-5.99 15.34 -6.98 14.68 -8 14 C-8 13.34 -8 12.68 -8 12 C-6.68 11.67 -5.36 11.34 -4 11 C-4 9.35 -4 7.7 -4 6 C-3.34 6 -2.68 6 -2 6 C-1.34 4.02 -0.68 2.04 0 0 Z " fill="#5A371C" transform="translate(408,243)"/>
<path d="M0 0 C2.37044872 0.95899896 3.72440078 1.53760575 5.0546875 3.76953125 C5.32539062 4.44371094 5.59609375 5.11789063 5.875 5.8125 C7.25480317 8.8404014 8.49605266 10.70171821 11.125 12.75 C13.76722759 14.81783029 14.86201584 15.92744276 16 19 C13 19 13 19 11.3515625 17.75 C1 7.25791855 1 7.25791855 1 2 C0.34 1.67 -0.32 1.34 -1 1 C-0.67 0.67 -0.34 0.34 0 0 Z " fill="#54361A" transform="translate(112,155)"/>
<path d="M0 0 C4.32989325 3.40651544 7.83905068 6.76051776 10.859375 11.38671875 C12.08723387 13.12338215 13.49679497 14.5008909 15 16 C16.1875 18.1875 16.1875 18.1875 17 20 C13.20620942 18.50958227 11.31656242 16.30937488 9 13 C9 12.34 9 11.68 9 11 C8.34 11 7.68 11 7 11 C5.52734375 9.609375 5.52734375 9.609375 3.9375 7.75 C3.41027344 7.14671875 2.88304687 6.5434375 2.33984375 5.921875 C0.94553177 3.92187065 0.42676942 2.38147874 0 0 Z " fill="#52361B" transform="translate(314,292)"/>
<path d="M0 0 C3.88696441 3.5781555 6.33342088 6.95078456 8.8125 11.6875 C9.41707031 12.82574219 10.02164062 13.96398437 10.64453125 15.13671875 C12 18 12 18 12 20 C11.34 20 10.68 20 10 20 C8.74609375 18.390625 8.74609375 18.390625 7.4375 16.25 C7.00308594 15.55390625 6.56867188 14.8578125 6.12109375 14.140625 C5 12 5 12 4.53515625 9.859375 C4.10210807 7.60139507 4.10210807 7.60139507 1 6 C-0.1875 3.375 -0.1875 3.375 -1 1 C-0.67 0.67 -0.34 0.34 0 0 Z " fill="#55371D" transform="translate(339,324)"/>
<path d="M0 0 C0.33 0.66 0.66 1.32 1 2 C2.32 1.67 3.64 1.34 5 1 C3.60469592 3.79060816 1.61637569 3.96381492 -1.15234375 5.078125 C-4.00500949 6.50144237 -5.89182777 8.6508938 -8 11 C-8.66 11.66 -9.32 12.32 -10 13 C-10.99 13 -11.98 13 -13 13 C-10.99155908 8.07019047 -7.35894926 4.90596617 -3 2 C-2.01 2 -1.02 2 0 2 C0 1.34 0 0.68 0 0 Z " fill="#5B3A1E" transform="translate(203,231)"/>
<path d="M0 0 C5.14442733 1.32808658 8.04728878 3.4840064 11.875 7.125 C12.37257812 7.59292969 12.87015625 8.06085937 13.3828125 8.54296875 C14.59664559 9.68677301 15.79949358 10.84221623 17 12 C16.01 12.495 16.01 12.495 15 13 C12.17823663 11.6596624 10.38717811 10.79855485 9 7.9375 C7.5861149 5.19809762 5.84202391 5.01500854 3 4 C1.63634717 3.04175747 0.29205831 2.05278825 -1 1 C-0.67 0.67 -0.34 0.34 0 0 Z " fill="#53351A" transform="translate(139,33)"/>
<path d="M0 0 C0.99 0.33 1.98 0.66 3 1 C2.2686797 3.6315542 1.51624995 6.25361861 0.75 8.875 C0.54503906 9.62136719 0.34007812 10.36773437 0.12890625 11.13671875 C-1.51390229 16.66252929 -1.51390229 16.66252929 -4.171875 18.5078125 C-5.07679688 18.75144531 -5.07679688 18.75144531 -6 19 C-5.73445313 18.38253906 -5.46890625 17.76507813 -5.1953125 17.12890625 C-2.82810634 11.45279514 -1.1685498 6.0375073 0 0 Z " fill="#56361B" transform="translate(415,223)"/>
<path d="M0 0 C0.99 0.33 1.98 0.66 3 1 C2.22914063 1.51949219 1.45828125 2.03898437 0.6640625 2.57421875 C-0.33882812 3.27160156 -1.34171875 3.96898437 -2.375 4.6875 C-3.37273437 5.37199219 -4.37046875 6.05648437 -5.3984375 6.76171875 C-8.16595761 9.14278335 -8.808096 10.64150416 -10 14 C-10.99 14.66 -11.98 15.32 -13 16 C-13.99 15.67 -14.98 15.34 -16 15 C-6.26880642 3.63590772 -6.26880642 3.63590772 0 0 Z " fill="#563A26" transform="translate(256,29)"/>
<path d="M0 0 C0.66 0 1.32 0 2 0 C0.62262427 4.01734589 -1.33026125 6.72741701 -4 10 C-4.33 10.99 -4.66 11.98 -5 13 C-5.66 13 -6.32 13 -7 13 C-7.33 14.32 -7.66 15.64 -8 17 C-8.99 16.67 -9.98 16.34 -11 16 C-9.92044741 14.26847042 -8.83617488 12.53988316 -7.75 10.8125 C-7.14671875 9.84957031 -6.5434375 8.88664063 -5.921875 7.89453125 C-4.07515263 5.11318719 -2.21284102 2.50087611 0 0 Z " fill="#57361E" transform="translate(338,173)"/>
<path d="M0 0 C0.804375 0.185625 1.60875 0.37125 2.4375 0.5625 C6.78253084 1.09610028 10.68989724 0.6225704 15 0 C15 0.66 15 1.32 15 2 C9.19233704 3.5056904 4.0018137 4.21824777 -2 4 C-2.33 3.34 -2.66 2.68 -3 2 C-2.01 1.67 -1.02 1.34 0 1 C0 0.67 0 0.34 0 0 Z " fill="#57351A" transform="translate(313,409)"/>
<path d="M0 0 C0.99 0.33 1.98 0.66 3 1 C3.06058594 1.81984375 3.12117188 2.6396875 3.18359375 3.484375 C3.26738281 4.56203125 3.35117187 5.6396875 3.4375 6.75 C3.51871094 7.81734375 3.59992188 8.8846875 3.68359375 9.984375 C3.94090773 12.43679962 4.31812218 14.63921291 5 17 C4.34 17.33 3.68 17.66 3 18 C2.79503906 17.01257813 2.59007812 16.02515625 2.37890625 15.0078125 C2.10949219 13.72648438 1.84007812 12.44515625 1.5625 11.125 C1.29566406 9.84882813 1.02882813 8.57265625 0.75390625 7.2578125 C0.1652174 4.13539756 0.1652174 4.13539756 -1 2 C-0.67 1.34 -0.34 0.68 0 0 Z " fill="#503218" transform="translate(315,242)"/>
<path d="M0 0 C0.99 0.33 1.98 0.66 3 1 C3.71706982 2.98248715 4.38290413 4.98415349 5 7 C5.66 7.66 6.32 8.32 7 9 C7.99 10.485 7.99 10.485 9 12 C8.67 12.99 8.34 13.98 8 15 C5.73192622 12.86495107 3.98935519 10.68604821 2.3125 8.0625 C1.87550781 7.39347656 1.43851562 6.72445312 0.98828125 6.03515625 C0 4 0 4 0 0 Z " fill="#583719" transform="translate(103,139)"/>
<path d="M0 0 C0.99 0.66 1.98 1.32 3 2 C2.6803125 2.70640625 2.360625 3.4128125 2.03125 4.140625 C0.64419308 7.98655554 0.56057529 11.61724214 0.34375 15.671875 C0.2303125 16.44015625 0.116875 17.2084375 0 18 C-0.66 18.33 -1.32 18.66 -2 19 C-2.87890625 12.84765625 -2.87890625 12.84765625 -3 11 C-2.67 10.67 -2.34 10.34 -2 10 C-1.79300437 8.50503158 -1.63320741 7.0033408 -1.5 5.5 C-1.11111111 1.11111111 -1.11111111 1.11111111 0 0 Z " fill="#593718" transform="translate(93,61)"/>
<path d="M0 0 C4.18600204 2.93804573 6.15580838 5.63568305 8.3125 10.25 C8.82425781 11.32765625 9.33601563 12.4053125 9.86328125 13.515625 C10.23839844 14.33546875 10.61351562 15.1553125 11 16 C10.01 16 9.02 16 8 16 C7.608125 15.175 7.21625 14.35 6.8125 13.5 C5.0487185 10.0940771 3.09154069 6.93579644 0.98828125 3.734375 C0 2 0 2 0 0 Z " fill="#54341B" transform="translate(303,32)"/>
<path d="M0 0 C0.99 0.495 0.99 0.495 2 1 C2.41064453 2.76586914 2.41064453 2.76586914 2.6328125 5.03515625 C2.71660156 5.84404297 2.80039063 6.65292969 2.88671875 7.48632812 C2.96535156 8.33646484 3.04398437 9.18660156 3.125 10.0625 C3.21136719 10.91650391 3.29773438 11.77050781 3.38671875 12.65039062 C3.59947228 14.76610633 3.80079953 16.88296524 4 19 C3.01 19 2.02 19 1 19 C0.67 12.73 0.34 6.46 0 0 Z " fill="#4B2711" transform="translate(90,83)"/>
<path d="M0 0 C3.91939465 3.80411834 7.49102731 7.81576108 11 12 C10.67 12.66 10.34 13.32 10 14 C6.06322574 12.68774191 5.1728218 10.8038606 2.8125 7.4375 C2.09707031 6.42558594 1.38164062 5.41367188 0.64453125 4.37109375 C0.10183594 3.58863281 -0.44085938 2.80617187 -1 2 C-0.67 1.34 -0.34 0.68 0 0 Z " fill="#53341B" transform="translate(232,161)"/>
<path d="M0 0 C2.81158409 2.49824489 4.44837831 5.278476 6.25 8.5625 C6.79140625 9.53316406 7.3328125 10.50382812 7.890625 11.50390625 C8.25671875 12.32761719 8.6228125 13.15132812 9 14 C8.67 14.66 8.34 15.32 8 16 C3.95808535 11.50898372 1.56325559 6.41015011 -1 1 C-0.67 0.67 -0.34 0.34 0 0 Z " fill="#4F351A" transform="translate(180,76)"/>
<path d="M0 0 C0.66 0.66 1.32 1.32 2 2 C4.65537372 2.56520003 7.29144713 2.73788198 10 3 C10 3.33 10 3.66 10 4 C7.9174133 4.19561869 5.83388144 4.38119313 3.75 4.5625 C2.00976562 4.71912109 2.00976562 4.71912109 0.234375 4.87890625 C-4.57001167 5.05878063 -4.57001167 5.05878063 -7 4 C-7.33 3.01 -7.66 2.02 -8 1 C-6.8553125 1.309375 -6.8553125 1.309375 -5.6875 1.625 C-2.78114056 2.33391203 -2.78114056 2.33391203 0 0 Z " fill="#5D3415" transform="translate(262,179)"/>
<path d="M0 0 C1.37562854 1.28965176 2.70766393 2.62689293 4 4 C4 4.66 4 5.32 4 6 C4.66 6 5.32 6 6 6 C6.66 7.98 7.32 9.96 8 12 C7.01 11.67 6.02 11.34 5 11 C5 10.01 5 9.02 5 8 C4.38125 7.773125 3.7625 7.54625 3.125 7.3125 C0.38589791 5.62070165 -0.05024472 4.00755839 -1 1 C-0.67 0.67 -0.34 0.34 0 0 Z " fill="#533419" transform="translate(331,312)"/>
<path d="M0 0 C3.40198926 4.04998722 6 8.63626649 6 14 C5.34 14 4.68 14 4 14 C-0.59225513 4.58997722 -0.59225513 4.58997722 0 0 Z " fill="#4E3017" transform="translate(351,344)"/>
<path d="M0 0 C3 0 3 0 5 1 C5.33 1.99 5.66 2.98 6 4 C8.00016466 5.20882096 8.00016466 5.20882096 10 6 C7 7 7 7 5.17578125 6.22265625 C3.45052083 5.1484375 1.72526042 4.07421875 0 3 C0 2.01 0 1.02 0 0 Z " fill="#55391D" transform="translate(334,282)"/>
<path d="M0 0 C-0.66 1.98 -1.32 3.96 -2 6 C-3.32 6 -4.64 6 -6 6 C-6.33 6.99 -6.66 7.98 -7 9 C-6.53149863 4.78348764 -4.94559315 0 0 0 Z " fill="#5E3519" transform="translate(181,254)"/>
<path d="M0 0 C4.82142857 5.78571429 4.82142857 5.78571429 6 9 C5.67 9.99 5.34 10.98 5 12 C0.09846827 5.92560175 0.09846827 5.92560175 -0.3125 2.0625 C-0.209375 1.381875 -0.10625 0.70125 0 0 Z " fill="#592D12" transform="translate(104,421)"/>
<path d="M0 0 C0.33 0 0.66 0 1 0 C1.0270043 1.45823212 1.04639787 2.91660675 1.0625 4.375 C1.07410156 5.18710938 1.08570312 5.99921875 1.09765625 6.8359375 C1 9 1 9 0 11 C-0.039992 12.99960012 -0.04346799 15.00047242 0 17 C-0.33 17 -0.66 17 -1 17 C-1.66 14.03 -2.32 11.06 -3 8 C-2.34 7.67 -1.68 7.34 -1 7 C-0.59270772 4.67843403 -0.25561323 2.3431213 0 0 Z " fill="#633514" transform="translate(93,72)"/>
<path d="M0 0 C3.63559661 3.43361902 6.36113346 6.7973607 9 11 C7.68 10.67 6.36 10.34 5 10 C5 9.01 5 8.02 5 7 C4.34 7 3.68 7 3 7 C3 6.34 3 5.68 3 5 C2.34 5 1.68 5 1 5 C0.67 3.35 0.34 1.7 0 0 Z " fill="#4E331B" transform="translate(164,54)"/>
<path d="M0 0 C0.66 0 1.32 0 2 0 C3.5078125 1.75 3.5078125 1.75 5.125 4 C5.66382813 4.7425 6.20265625 5.485 6.7578125 6.25 C7.16773438 6.8275 7.57765625 7.405 8 8 C3.20719998 7.19095897 1.86479887 4.74015409 -1 1 C-0.67 0.67 -0.34 0.34 0 0 Z " fill="#52361C" transform="translate(306,283)"/>
<path d="M0 0 C3.66881155 0.70554068 6.70450534 2.27735506 10 4 C9.67 4.66 9.34 5.32 9 6 C4.64464931 4.83857315 2.35380297 3.92300495 0 0 Z " fill="#56351F" transform="translate(243,175)"/>
<path d="M0 0 C-5.14285714 4.42857143 -5.14285714 4.42857143 -9 5 C-9 4.01 -9 3.02 -9 2 C-3.375 -1.125 -3.375 -1.125 0 0 Z " fill="#5A371B" transform="translate(271,23)"/>
<path d="M0 0 C2.475 0.99 2.475 0.99 5 2 C5 2.66 5 3.32 5 4 C5.9590625 4.433125 5.9590625 4.433125 6.9375 4.875 C9 6 9 6 10 8 C8.68 7.67 7.36 7.34 6 7 C6 6.34 6 5.68 6 5 C5.195625 4.731875 4.39125 4.46375 3.5625 4.1875 C2.716875 3.795625 1.87125 3.40375 1 3 C0.67 2.01 0.34 1.02 0 0 Z " fill="#533516" transform="translate(262,243)"/>
<path d="M0 0 C1.14926266 0.95421808 2.29430541 1.91352045 3.4375 2.875 C4.07558594 3.40867188 4.71367187 3.94234375 5.37109375 4.4921875 C7 6 7 6 8 8 C5.69 7.34 3.38 6.68 1 6 C0.67 4.02 0.34 2.04 0 0 Z " fill="#57361D" transform="translate(156,46)"/>
<path d="M0 0 C3.35620271 1.38877354 5.07298728 2.91677965 7 6 C7 6.66 7 7.32 7 8 C3.64379729 6.61122646 1.92701272 5.08322035 0 2 C0 1.34 0 0.68 0 0 Z " fill="#55361C" transform="translate(25,261)"/>
<path d="M0 0 C4 6 4 6 3.625 8.6875 C3.41875 9.450625 3.2125 10.21375 3 11 C0.81024227 7.71536341 0.00193437 4.79303725 -1 1 C-0.67 0.67 -0.34 0.34 0 0 Z " fill="#553317" transform="translate(99,127)"/>
<path d="M0 0 C0.33 0.66 0.66 1.32 1 2 C2.32 1.67 3.64 1.34 5 1 C4 3 4 3 1.93359375 3.8515625 C0.69802734 4.23441406 0.69802734 4.23441406 -0.5625 4.625 C-1.38878906 4.88539063 -2.21507812 5.14578125 -3.06640625 5.4140625 C-3.70449219 5.60742188 -4.34257812 5.80078125 -5 6 C-4.34 4.68 -3.68 3.36 -3 2 C-2.01 2 -1.02 2 0 2 C0 1.34 0 0.68 0 0 Z " fill="#543218" transform="translate(203,231)"/>
<path d="M0 0 C1.32 0 2.64 0 4 0 C6.25 2.5 6.25 2.5 8 5 C7.01 5.495 7.01 5.495 6 6 C5.01 5.67 4.02 5.34 3 5 C2.6278958 3.67696283 2.29369827 2.34262065 2 1 C1.34 0.67 0.68 0.34 0 0 Z " fill="#5D2C16" transform="translate(286,265)"/>
<path d="M0 0 C3.81538462 2.46153846 3.81538462 2.46153846 4.75 5.1875 C4.8325 5.785625 4.915 6.38375 5 7 C3.68 6.67 2.36 6.34 1 6 C1 5.01 1 4.02 1 3 C0.34 2.67 -0.32 2.34 -1 2 C-0.67 1.34 -0.34 0.68 0 0 Z " fill="#5D3A10" transform="translate(83,181)"/>
<path d="M0 0 C0.66 0 1.32 0 2 0 C2 2.64 2 5.28 2 8 C1.01 8.495 1.01 8.495 0 9 C-0.87890625 2.84765625 -0.87890625 2.84765625 -1 1 C-0.67 0.67 -0.34 0.34 0 0 Z " fill="#462A0E" transform="translate(91,71)"/>
<path d="M0 0 C0.66 0.33 1.32 0.66 2 1 C2.40729228 3.32156597 2.74438677 5.6568787 3 8 C2.34 8 1.68 8 1 8 C0.26919734 6.02253397 -0.39421747 4.01927511 -1 2 C-0.67 1.34 -0.34 0.68 0 0 Z " fill="#51311D" transform="translate(314,50)"/>
<path d="M0 0 C-2.2551922 2.2551922 -4.0047587 2.97723468 -7 4 C-7.99 4 -8.98 4 -10 4 C-7.39928297 0.98864344 -3.94054294 -1.97027147 0 0 Z " fill="#523721" transform="translate(118,34)"/>
<path d="" fill="#000000" transform="translate(0,0)"/>
<path d="" fill="#000000" transform="translate(0,0)"/>
</svg>
